{
  "accessors": [
    {
      "bufferView": 1,
      "componentType": 5126,
      "count": 480,
      "max": [
        47.388359069824219,
        285.50869750976562,
        4.7048101425170898
      ],
      "min": [
        -47.388359069824219,
        185.68022155761719,
        1.7062400579452515
      ],
      "type": "VEC3"
    },
    {
      "bufferView": 1,
      "byteOffset": 5760,
      "componentType": 5126,
      "count": 480,
      "max": [
        0.99999070167541504,
        0.99998712539672852,
        0.65638095140457153
      ],
      "min": [
        -0.99999070167541504,
        -0.95678079128265381,
        -0.98105049133300781
      ],
      "type": "VEC3"
    },
    {
      "bufferView": 0,
      "componentType": 5125,
      "count": 720,
      "max": [
        479
      ],
      "min": [
        0
      ],
      "type": "SCALAR"
    },
    {
      "bufferView": 1,
      "byteOffset": 11520,
      "componentType": 5126,
      "count": 2448,
      "max": [
        58.571979522705078,
        32.102809906005859,
        2.8562600612640381
      ],
      "min": [
        -58.571979522705078,
        14.835760116577148,
        -0.047990001738071442
      ],
      "type": "VEC3"
    },
    {
      "bufferView": 1,
      "byteOffset": 40896,
      "componentType": 5126,
      "count": 2448,
      "max": [
        1,
        1,
        1
      ],
      "min": [
        -1,
        -1,
        -1
      ],
      "type": "VEC3"
    },
    {
      "bufferView": 0,
      "byteOffset": 2880,
      "componentType": 5125,
      "count": 5184,
      "max": [
        2447
      ],
      "min": [
        0
      ],
      "type": "SCALAR"
    },
    {
      "bufferView": 1,
      "byteOffset": 70272,
      "componentType": 5126,
      "count": 9484,
      "max": [
        17.133829116821289,
        10.622949600219727,
        3.254580020904541
      ],
      "min": [
        -17.133829116821289,
        -7.2400398254394531,
        -0.49263998866081238
      ],
      "type": "VEC3"
    },
    {
      "bufferView": 1,
      "byteOffset": 184080,
      "componentType": 5126,
      "count": 9484,
      "max": [
        1,
        1,
        1
      ],
      "min": [
        -1,
        -1,
        -1
      ],
      "type": "VEC3"
    },
    {
      "bufferView": 2,
      "componentType": 5126,
      "count": 9484,
      "max": [
        0,
        0,
        0,
        1
      ],
      "min": [
        0,
        0,
        0,
        1
      ],
      "type": "VEC4"
    },
    {
      "bufferView": 0,
      "byteOffset": 23616,
      "componentType": 5125,
      "count": 25686,
      "max": [
        9483
      ],
      "min": [
        0
      ],
      "type": "SCALAR"
    },
    {
      "bufferView": 1,
      "byteOffset": 297888,
      "componentType": 5126,
      "count": 1160,
      "max": [
        17.083429336547852,
        10.094090461730957,
        3.0107600688934326
      ],
      "min": [
        -17.083429336547852,
        -6.8331699371337891,
        0
      ],
      "type": "VEC3"
    },
    {
      "bufferView": 1,
      "byteOffset": 311808,
      "componentType": 5126,
      "count": 1160,
      "max": [
        1,
        1,
        0.95155000686645508
      ],
      "min": [
        -1,
        -1,
        -1
      ],
      "type": "VEC3"
    },
    {
      "bufferView": 2,
      "byteOffset": 151744,
      "componentType": 5126,
      "count": 1160,
      "max": [
        1,
        0.00016188740846700966,
        1,
        1
      ],
      "min": [
        -1,
        -0.00014851734158582985,
        -1,
        -1
      ],
      "type": "VEC4"
    },
    {
      "bufferView": 0,
      "byteOffset": 126360,
      "componentType": 5125,
      "count": 2907,
      "max": [
        1159
      ],
      "min": [
        0
      ],
      "type": "SCALAR"
    },
    {
      "bufferView": 1,
      "byteOffset": 325728,
      "componentType": 5126,
      "count": 5820,
      "max": [
        17.106479644775391,
        9.7189702987670898,
        2.3908200263977051
      ],
      "min": [
        -17.106479644775391,
        -7.190040111541748,
        -0.14217999577522278
      ],
      "type": "VEC3"
    },
    {
      "bufferView": 1,
      "byteOffset": 395568,
      "componentType": 5126,
      "count": 5820,
      "max": [
        1,
        1,
        0.98126351833343506
      ],
      "min": [
        -1,
        -1,
        -1
      ],
      "type": "VEC3"
    },
    {
      "bufferView": 2,
      "byteOffset": 170304,
      "componentType": 5126,
      "count": 5820,
      "max": [
        0,
        0,
        0,
        1
      ],
      "min": [
        0,
        0,
        0,
        1
      ],
      "type": "VEC4"
    },
    {
      "bufferView": 0,
      "byteOffset": 137988,
      "componentType": 5125,
      "count": 11946,
      "max": [
        5819
      ],
      "min": [
        0
      ],
      "type": "SCALAR"
    },
    {
      "bufferView": 1,
      "byteOffset": 465408,
      "componentType": 5126,
      "count": 5116,
      "max": [
        16.746070861816406,
        8.3757295608520508,
        2.2000000476837158
      ],
      "min": [
        -16.746070861816406,
        -5.0888900756835938,
        -0.32067000865936279
      ],
      "type": "VEC3"
    },
    {
      "bufferView": 1,
      "byteOffset": 526800,
      "componentType": 5126,
      "count": 5116,
      "max": [
        1,
        1,
        1
      ],
      "min": [
        -1,
        -1,
        -1
      ],
      "type": "VEC3"
    },
    {
      "bufferView": 2,
      "byteOffset": 263424,
      "componentType": 5126,
      "count": 5116,
      "max": [
        0,
        0,
        0,
        1
      ],
      "min": [
        0,
        0,
        0,
        1
      ],
      "type": "VEC4"
    },
    {
      "bufferView": 0,
      "byteOffset": 185772,
      "componentType": 5125,
      "count": 9204,
      "max": [
        5115
      ],
      "min": [
        0
      ],
      "type": "SCALAR"
    },
    {
      "bufferView": 1,
      "byteOffset": 588192,
      "componentType": 5126,
      "count": 700,
      "max": [
        16.628599166870117,
        9.2456398010253906,
        3.254580020904541
      ],
      "min": [
        -16.628599166870117,
        -7.190040111541748,
        0
      ],
      "type": "VEC3"
    },
    {
      "bufferView": 1,
      "byteOffset": 596592,
      "componentType": 5126,
      "count": 700,
      "max": [
        0.78087180852890015,
        0.74741160869598389,
        1
      ],
      "min": [
        -0.78087180852890015,
        -0.75925874710083008,
        -0.88496297597885132
      ],
      "type": "VEC3"
    },
    {
      "bufferView": 2,
      "byteOffset": 345280,
      "componentType": 5126,
      "count": 700,
      "max": [
        0,
        0,
        0,
        1
      ],
      "min": [
        0,
        0,
        0,
        1
      ],
      "type": "VEC4"
    },
    {
      "bufferView": 0,
      "byteOffset": 222588,
      "componentType": 5125,
      "count": 1476,
      "max": [
        699
      ],
      "min": [
        0
      ],
      "type": "SCALAR"
    },
    {
      "bufferView": 1,
      "byteOffset": 604992,
      "componentType": 5126,
      "count": 541,
      "max": [
        16.739349365234375,
        7.2195301055908203,
        1.5750000476837158
      ],
      "min": [
        -16.739349365234375,
        -7.2400398254394531,
        0.84161001443862915
      ],
      "type": "VEC3"
    },
    {
      "bufferView": 1,
      "byteOffset": 611484,
      "componentType": 5126,
      "count": 541,
      "max": [
        1,
        1,
        1
      ],
      "min": [
        -1,
        -1,
        -1
      ],
      "type": "VEC3"
    },
    {
      "bufferView": 2,
      "byteOffset": 356480,
      "componentType": 5126,
      "count": 541,
      "max": [
        0,
        0,
        0,
        1
      ],
      "min": [
        0,
        0,
        0,
        1
      ],
      "type": "VEC4"
    },
    {
      "bufferView": 0,
      "byteOffset": 228492,
      "componentType": 5125,
      "count": 1119,
      "max": [
        540
      ],
      "min": [
        0
      ],
      "type": "SCALAR"
    },
    {
      "bufferView": 1,
      "byteOffset": 617976,
      "componentType": 5126,
      "count": 60,
      "max": [
        16.479679107666016,
        10.164360046386719,
        1.8999999761581421
      ],
      "min": [
        -16.479679107666016,
        9.4103202819824219,
        0.30000001192092896
      ],
      "type": "VEC3"
    },
    {
      "bufferView": 1,
      "byteOffset": 618696,
      "componentType": 5126,
      "count": 60,
      "max": [
        0,
        0.90457761287689209,
        -0.42630887031555176
      ],
      "min": [
        0,
        0.90457761287689209,
        -0.42630887031555176
      ],
      "type": "VEC3"
    },
    {
      "bufferView": 2,
      "byteOffset": 365136,
      "componentType": 5126,
      "count": 60,
      "max": [
        0,
        0,
        0,
        1
      ],
      "min": [
        0,
        0,
        0,
        1
      ],
      "type": "VEC4"
    },
    {
      "bufferView": 0,
      "byteOffset": 232968,
      "componentType": 5125,
      "count": 144,
      "max": [
        59
      ],
      "min": [
        0
      ],
      "type": "SCALAR"
    },
    {
      "bufferView": 1,
      "byteOffset": 619416,
      "componentType": 5126,
      "count": 672,
      "max": [
        17.133829116821289,
        9.502960205078125,
        1.5750000476837158
      ],
      "min": [
        -17.133829116821289,
        3.1861999034881592,
        0.5757099986076355
      ],
      "type": "VEC3"
    },
    {
      "bufferView": 1,
      "byteOffset": 627480,
      "componentType": 5126,
      "count": 672,
      "max": [
        1,
        1,
        -0
      ],
      "min": [
        -1,
        -1,
        -1
      ],
      "type": "VEC3"
    },
    {
      "bufferView": 2,
      "byteOffset": 366096,
      "componentType": 5126,
      "count": 672,
      "max": [
        0,
        0,
        0,
        1
      ],
      "min": [
        0,
        0,
        0,
        1
      ],
      "type": "VEC4"
    },
    {
      "bufferView": 0,
      "byteOffset": 233544,
      "componentType": 5125,
      "count": 1272,
      "max": [
        671
      ],
      "min": [
        0
      ],
      "type": "SCALAR"
    }
  ],
  "asset": {
    "extras": {
      "author": "Robin Butler (https://sketchfab.com/StarTrekGuy)",
      "license": "CC-BY-NC-4.0 (http://creativecommons.org/licenses/by-nc/4.0/)",
      "source": "https://sketchfab.com/models/9ec21668c64642038871c5bb8b348839",
      "title": "Low Poly Corridor - [Star Trek]"
    },
    "generator": "Sketchfab-3.20.7",
    "version": "2.0"
  },
  "bufferViews": [
    {
      "buffer": 0,
      "byteLength": 238632,
      "byteOffset": 0,
      "name": "floatBufferViews",
      "target": 34963
    },
    {
      "buffer": 0,
      "byteLength": 635544,
      "byteOffset": 238632,
      "byteStride": 12,
      "name": "floatBufferViews",
      "target": 34962
    },
    {
      "buffer": 0,
      "byteLength": 376848,
      "byteOffset": 874176,
      "byteStride": 16,
      "name": "floatBufferViews",
      "target": 34962
    }
  ],
  "buffers": [
    {
      "byteLength": 1251024,
      "uri": "scene.bin"
    }
  ],
  "extensionsRequired": [
    "KHR_materials_pbrSpecularGlossiness"
  ],
  "extensionsUsed": [
    "KHR_materials_pbrSpecularGlossiness"
  ],
  "materials": [
    {
      "doubleSided": true,
      "emissiveFactor": [
        0,
        0,
        0
      ],
      "extensions": {
        "KHR_materials_pbrSpecularGlossiness": {
          "diffuseFactor": [
            0.14977777319999999,
            0.12826535319999999,
            0.096204667199999996,
            1
          ],
          "glossinessFactor": 0,
          "specularFactor": [
            0,
            0,
            0
          ]
        }
      },
      "name": "Soft_Grey"
    },
    {
      "doubleSided": true,
      "emissiveFactor": [
        0,
        0,
        0
      ],
      "extensions": {
        "KHR_materials_pbrSpecularGlossiness": {
          "diffuseFactor": [
            0.052973196100000002,
            0.042453832099999998,
            0.033406661499999997,
            1
          ],
          "glossinessFactor": 0,
          "specularFactor": [
            0,
            0,
            0
          ]
        }
      },
      "name": "Dark_Grey"
    },
    {
      "doubleSided": true,
      "emissiveFactor": [
        0,
        0,
        0
      ],
      "extensions": {
        "KHR_materials_pbrSpecularGlossiness": {
          "diffuseFactor": [
            0.068322986316641562,
            0.051673445275837851,
            0.021988009885283943,
            1
          ],
          "glossinessFactor": 0,
          "specularFactor": [
            0,
            0,
            0
          ]
        }
      },
      "name": "material"
    },
    {
      "doubleSided": true,
      "emissiveFactor": [
        0,
        0,
        0
      ],
      "extensions": {
        "KHR_materials_pbrSpecularGlossiness": {
          "diffuseFactor": [
            0.0366153751,
            0.016182249700000002,
            0.0047755560000000002,
            1
          ],
          "glossinessFactor": 0,
          "specularFactor": [
            0,
            0,
            0
          ]
        }
      },
      "name": "Brown"
    },
    {
      "doubleSided": true,
      "emissiveFactor": [
        1,
        1,
        1
      ],
      "extensions": {
        "KHR_materials_pbrSpecularGlossiness": {
          "diffuseFactor": [
            1,
            1,
            1,
            1
          ],
          "glossinessFactor": 1,
          "specularFactor": [
            1,
            1,
            1
          ]
        }
      },
      "name": "Lights"
    },
    {
      "doubleSided": true,
      "emissiveFactor": [
        0,
        0,
        0
      ],
      "extensions": {
        "KHR_materials_pbrSpecularGlossiness": {
          "diffuseFactor": [
            0,
            0,
            0,
            1
          ],
          "glossinessFactor": 0,
          "specularFactor": [
            0,
            0,
            0
          ]
        }
      },
      "name": "Area"
    },
    {
      "alphaMode": "BLEND",
      "doubleSided": true,
      "emissiveFactor": [
        0,
        0,
        0
      ],
      "extensions": {
        "KHR_materials_pbrSpecularGlossiness": {
          "diffuseFactor": [
            0,
            0,
            0,
            0.016535410100000002
          ],
          "glossinessFactor": 1,
          "specularFactor": [
            0.23346458989999999,
            0.23346458989999999,
            0.23346458989999999
          ]
        }
      },
      "name": "Windows"
    },
    {
      "doubleSided": true,
      "emissiveFactor": [
        0,
        0,
        0
      ],
      "extensions": {
        "KHR_materials_pbrSpecularGlossiness": {
          "diffuseFactor": [
            0.2603152963,
            0.2603152963,
            0.2603152963,
            1
          ],
          "glossinessFactor": 0.54702321490000005,
          "specularFactor": [
            0,
            0,
            0
          ]
        }
      },
      "name": "Material"
    },
    {
      "doubleSided": true,
      "emissiveFactor": [
        0,
        0,
        0
      ],
      "extensions": {
        "KHR_materials_pbrSpecularGlossiness": {
          "diffuseFactor": [
            0.039605399600000001,
            0.64686872799999995,
            0.0025479405,
            1
          ],
          "glossinessFactor": 0,
          "specularFactor": [
            0,
            0,
            0
          ]
        }
      },
      "name": "Plant"
    }
  ],
  "meshes": [
    {
      "name": "Plants_0",
      "primitives": [
        {
          "attributes": {
            "NORMAL": 1,
            "POSITION": 0
          },
          "indices": 2,
          "material": 8,
          "mode": 4
        }
      ]
    },
    {
      "name": "Chairs_0",
      "primitives": [
        {
          "attributes": {
            "NORMAL": 4,
            "POSITION": 3
          },
          "indices": 5,
          "material": 1,
          "mode": 4
        }
      ]
    },
    {
      "name": "HALL_0",
      "primitives": [
        {
          "attributes": {
            "NORMAL": 7,
            "POSITION": 6,
            "TANGENT": 8
          },
          "indices": 9,
          "material": 0,
          "mode": 4
        }
      ]
    },
    {
      "name": "HALL_1",
      "primitives": [
        {
          "attributes": {
            "NORMAL": 11,
            "POSITION": 10,
            "TANGENT": 12
          },
          "indices": 13,
          "material": 1,
          "mode": 4
        }
      ]
    },
    {
      "name": "HALL_2",
      "primitives": [
        {
          "attributes": {
            "NORMAL": 15,
            "POSITION": 14,
            "TANGENT": 16
          },
          "indices": 17,
          "material": 2,
          "mode": 4
        }
      ]
    },
    {
      "name": "HALL_3",
      "primitives": [
        {
          "attributes": {
            "NORMAL": 19,
            "POSITION": 18,
            "TANGENT": 20
          },
          "indices": 21,
          "material": 3,
          "mode": 4
        }
      ]
    },
    {
      "name": "HALL_4",
      "primitives": [
        {
          "attributes": {
            "NORMAL": 23,
            "POSITION": 22,
            "TANGENT": 24
          },
          "indices": 25,
          "material": 4,
          "mode": 4
        }
      ]
    },
    {
      "name": "HALL_5",
      "primitives": [
        {
          "attributes": {
            "NORMAL": 27,
            "POSITION": 26,
            "TANGENT": 28
          },
          "indices": 29,
          "material": 5,
          "mode": 4
        }
      ]
    },
    {
      "name": "HALL_6",
      "primitives": [
        {
          "attributes": {
            "NORMAL": 31,
            "POSITION": 30,
            "TANGENT": 32
          },
          "indices": 33,
          "material": 6,
          "mode": 4
        }
      ]
    },
    {
      "name": "HALL_7",
      "primitives": [
        {
          "attributes": {
            "NORMAL": 35,
            "POSITION": 34,
            "TANGENT": 36
          },
          "indices": 37,
          "material": 7,
          "mode": 4
        }
      ]
    }
  ],
  "nodes": [
    {
      "children": [
        1
      ],
      "name": "RootNode (gltf orientation matrix)",
      "rotation": [
        -0.70710678118654746,
        -0,
        -0,
        0.70710678118654757
      ]
    },
    {
      "children": [
        2
      ],
      "name": "RootNode (model correction matrix)"
    },
    {
      "children": [
        3,
        5,
        7,
        9,
        11,
        20
      ],
      "name": "Root"
    },
    {
      "children": [
        4
      ],
      "matrix": [
        0.61920000000000008,
        0,
        0,
        0,
        0,
        0.051130000000000016,
        0,
        0,
        0,
        0,
        0.41921000000000003,
        0,
        0,
        0,
        0,
        1
      ],
      "name": "Plants"
    },
    {
      "mesh": 0,
      "name": "Plants_0"
    },
    {
      "children": [
        6
      ],
      "matrix": [
        0.51134999999999997,
        0,
        0,
        0,
        0,
        0.51134999999999997,
        0,
        0,
        0,
        0,
        0.51134999999999997,
        0,
        0,
        0,
        0,
        1
      ],
      "name": "Chairs"
    },
    {
      "mesh": 1,
      "name": "Chairs_0"
    },
    {
      "children": [
        8
      ],
      "matrix": [
        1,
        0,
        0,
        0,
        0,
        1,
        0,
        0,
        -0,
        0,
        1,
        0,
        0,
        -2.5541200000000002,
        -5.6179599999999992,
        1
      ],
      "name": "Sun.002"
    },
    {
      "name": "Sun.002"
    },
    {
      "children": [
        10
      ],
      "matrix": [
        1,
        -0,
        0,
        0,
        -0,
        -1,
        -0,
        0,
        0,
        0,
        -1,
        0,
        0,
        0,
        -3.2822399999999998,
        1
      ],
      "name": "Sun.001"
    },
    {
      "name": "Sun.001"
    },
    {
      "children": [
        12,
        13,
        14,
        15,
        16,
        17,
        18,
        19
      ],
      "matrix": [
        1.8286899999999999,
        0,
        0,
        0,
        0,
        1.8286899999999999,
        0,
        0,
        0,
        0,
        1.8286899999999999,
        0,
        0,
        0,
        0,
        1
      ],
      "name": "HALL"
    },
    {
      "mesh": 2,
      "name": "HALL_0"
    },
    {
      "mesh": 3,
      "name": "HALL_1"
    },
    {
      "mesh": 4,
      "name": "HALL_2"
    },
    {
      "mesh": 5,
      "name": "HALL_3"
    },
    {
      "mesh": 6,
      "name": "HALL_4"
    },
    {
      "mesh": 7,
      "name": "HALL_5"
    },
    {
      "mesh": 8,
      "name": "HALL_6"
    },
    {
      "mesh": 9,
      "name": "HALL_7"
    },
    {
      "children": [
        21
      ],
      "matrix": [
        374.22133999999994,
        0,
        0,
        0,
        0,
        263.44610999999992,
        0,
        0,
        0,
        0,
        374.22133999999994,
        0,
        -0.4333800000000001,
        0,
        3.8126899999999995,
        1
      ],
      "name": "Area"
    },
    {
      "name": "Area"
    }
  ],
  "scene": 0,
  "scenes": [
    {
      "name": "OSG_Scene",
      "nodes": [
        0
      ]
    }
  ]
}

